<svg width="29" height="40" viewBox="0 0 29 40" fill="none" xmlns="http://www.w3.org/2000/svg">
<path d="M21.75 27.5H10.4423L8.12 30.2344L5.79773 27.5H0.90625V29.375C0.90625 31.7648 2.10307 33.7117 3.58309 33.75C3.72072 34.9312 4.05377 35.9984 4.55504 36.8336C5.29646 38.0688 6.37434 38.75 7.58984 38.75H15.0664C16.2819 38.75 17.3598 38.0688 18.1012 36.832C18.6025 35.9969 18.9355 34.9297 19.0732 33.7484C19.8593 33.7289 20.5656 33.1703 21.0556 32.293C21.5132 31.4519 21.7572 30.4265 21.75 29.375V27.5ZM5.94727 25L8.1183 27.2023L10.3086 25H21.75V24.375C21.7494 23.6549 21.5687 22.9571 21.2386 22.3992C20.9084 21.8413 20.4489 21.4575 19.9375 21.3125C19.8911 18.993 19.2012 17.0516 17.9262 15.6875C16.7469 14.4188 15.1712 13.75 13.3672 13.75H9.28906C5.42504 13.75 2.80768 16.7789 2.71875 21.3125C2.20735 21.4575 1.74784 21.8413 1.41767 22.3992C1.08751 22.9571 0.906888 23.6549 0.90625 24.375V25H5.94727Z" fill="#0E0E0E"/>
<path d="M26.2291 7.5H22.0043L22.5096 4.71406L25.0352 3.51562L24.4688 1.25L20.957 2.8125L20.1363 7.5H11.7812V10H12.8433L12.9486 11.25H13.3672C15.5762 11.25 17.5393 12.1016 19.038 13.7125C19.8716 14.5984 20.5474 15.7355 21.0137 17.0367C21.301 17.844 21.5056 18.7025 21.6214 19.5875C22.4654 20.3043 23.0913 21.4205 23.382 22.7275C23.6728 24.0344 23.6085 25.4427 23.2011 26.6891C23.4398 27.5463 23.5623 28.4567 23.5625 29.375C23.5625 31.1203 23.132 32.7836 22.3504 34.0586C21.8667 34.8534 21.2471 35.4696 20.5475 35.8516C20.3091 36.7886 19.9539 37.6611 19.498 38.4297C19.4311 38.5406 19.3626 38.6492 19.2924 38.7539H23.5625C24.4688 38.7539 24.8652 38.1289 24.9785 36.957L27.0402 10.0039H28.0938V7.5H26.2291Z" fill="#0E0E0E"/>
</svg>
